<svg version="1.1" id="Uploaded to svgrepo.com" xmlns="http://www.w3.org/2000/svg" xmlns:xlink="http://www.w3.org/1999/xlink" width="32px" height="32px" viewBox="0 0 1.28 1.28" xml:space="preserve"><style type="text/css">.cubies_negentien{fill:#F2C99E;}
	.cubies_twintig{fill:#F9E0BD;}
	.cubies_drieentwintig{fill:#E69D8A;}
	.cubies_zevenentwintig{fill:#98D3BC;}
	.cubies_twee{fill:#67625D;}
	.cubies_twaalf{fill:#FFF2DF;}
	.st0{fill:#C9483A;}
	.st1{fill:#D97360;}
	.st2{fill:#CCE2CD;}
	.st3{fill:#65C3AB;}
	.st4{fill:#4C4842;}
	.st5{fill:#EDEAE5;}
	.st6{fill:#C9C6C0;}
	.st7{fill:#EDB57E;}
	.st8{fill:#2EB39A;}
	.st9{fill:#BCD269;}
	.st10{fill:#D1DE8B;}
	.st11{fill:#EC9B5A;}
	.st12{fill:#837F79;}
	.st13{fill:#A5A29C;}
	.st14{fill:#8E7866;}
	.st15{fill:#725A48;}
	.st16{fill:#F2C7B5;}
	.st17{fill:#A4C83F;}
	.st18{fill:#E3D4C0;}</style><g><path class="cubies_negentien" d="M1.16 1.28H0.12a0.12 0.12 0 0 1 -0.12 -0.12V0.12a0.12 0.12 0 0 1 0.12 -0.12h1.04a0.12 0.12 0 0 1 0.12 0.12v1.04a0.12 0.12 0 0 1 -0.12 0.12z"/><path class="cubies_twintig" d="M1.08 1.28H0.12a0.12 0.12 0 0 1 -0.12 -0.12V0.12a0.12 0.12 0 0 1 0.12 -0.12h0.96a0.12 0.12 0 0 1 0.12 0.12v1.04a0.12 0.12 0 0 1 -0.12 0.12z"/><path class="cubies_twee" d="M1.12 0.12v0.68a0.04 0.04 0 0 1 -0.04 0.04H0.12a0.04 0.04 0 0 1 -0.04 -0.04V0.12a0.04 0.04 0 0 1 0.04 -0.04h0.96a0.04 0.04 0 0 1 0.04 0.04zm-0.04 0.84H0.64a0.04 0.04 0 0 0 0 0.08h0.44a0.04 0.04 0 0 0 0 -0.08zm-0.56 0a0.04 0.04 0 1 0 0 0.08 0.04 0.04 0 0 0 0 -0.08z"/><path class="cubies_drieentwintig" d="M0.38 0.32h-0.12a0.02 0.02 0 0 1 0 -0.04h0.12a0.02 0.02 0 0 1 0 0.04zm0.02 0.06a0.02 0.02 0 0 0 -0.02 -0.02h-0.12a0.02 0.02 0 0 0 0 0.04h0.12a0.02 0.02 0 0 0 0.02 -0.02zm0 0.08a0.02 0.02 0 0 0 -0.02 -0.02h-0.12a0.02 0.02 0 0 0 0 0.04h0.12a0.02 0.02 0 0 0 0.02 -0.02zm0 0.08a0.02 0.02 0 0 0 -0.02 -0.02h-0.12a0.02 0.02 0 0 0 0 0.04h0.12a0.02 0.02 0 0 0 0.02 -0.02z"/><path class="cubies_zevenentwintig" d="M0.98 0.64h-0.68a0.02 0.02 0 0 1 0 -0.04h0.68a0.02 0.02 0 0 1 0 0.04zM0.92 0.54a0.02 0.02 0 0 0 -0.02 -0.02h-0.44a0.02 0.02 0 0 0 0 0.04h0.44a0.02 0.02 0 0 0 0.02 -0.02z"/><path class="cubies_twaalf" d="M0.26 0.24h-0.04a0.02 0.02 0 0 1 0 -0.04h0.04a0.02 0.02 0 0 1 0 0.04zM1 0.3a0.02 0.02 0 0 0 -0.02 -0.02h-0.52a0.02 0.02 0 0 0 0 0.04h0.52a0.02 0.02 0 0 0 0.02 -0.02zm-0.08 0.08a0.02 0.02 0 0 0 -0.02 -0.02h-0.44a0.02 0.02 0 0 0 0 0.04h0.44a0.02 0.02 0 0 0 0.02 -0.02zm0.08 0.08a0.02 0.02 0 0 0 -0.02 -0.02h-0.52a0.02 0.02 0 0 0 0 0.04h0.52a0.02 0.02 0 0 0 0.02 -0.02zm-0.72 0.24a0.02 0.02 0 0 0 -0.02 -0.02h-0.04a0.02 0.02 0 0 0 0 0.04h0.04a0.02 0.02 0 0 0 0.02 -0.02z"/></g></svg>